<?xml version="1.0" standalone="no"?>
<!DOCTYPE svg PUBLIC "-//W3C//DTD SVG 20010904//EN"
 "http://www.w3.org/TR/2001/REC-SVG-20010904/DTD/svg10.dtd">
<svg version="1.0" xmlns="http://www.w3.org/2000/svg"
 width="225.000000pt" height="225.000000pt" viewBox="0 0 225.000000 225.000000"
 preserveAspectRatio="xMidYMid meet">

<g transform="translate(0.000000,225.000000) scale(0.100000,-0.100000)"
fill="#000000" stroke="none">
<path d="M954 1819 l-172 -172 -228 70 c-154 47 -231 66 -235 59 -4 -6 -46
-139 -94 -295 l-86 -284 33 -32 c33 -33 853 -810 919 -872 l35 -33 470 446
c258 245 479 456 492 468 l23 23 -86 284 c-48 156 -90 289 -94 295 -4 7 -81
-12 -235 -59 l-228 -70 -172 172 -171 171 -171 -171z m154 -991 l-3 -373 -94
560 c-52 308 -96 568 -99 577 -2 11 -21 22 -46 29 -22 6 -45 13 -50 16 -4 3
59 73 140 154 l149 149 3 -370 c1 -203 1 -538 0 -742z m327 811 c-3 -3 -25
-12 -49 -18 -36 -9 -45 -16 -50 -38 -3 -16 -47 -269 -96 -563 -50 -294 -92
-542 -94 -550 -2 -8 -4 320 -5 730 l-1 745 149 -149 c83 -83 148 -153 146
-157z m-686 -5 c10 -3 4 -15 -23 -43 l-38 -39 186 -558 c102 -307 184 -559
183 -561 -3 -2 -693 1288 -705 1317 -2 6 300 -83 397 -116z m799 -542 c-194
-364 -353 -660 -355 -659 -1 2 81 254 183 561 l186 558 -38 39 c-21 21 -36 39
-34 40 3 0 95 28 205 63 110 34 201 62 202 61 2 -1 -156 -299 -349 -663z
m-618 -474 c81 -153 145 -278 142 -278 -3 0 -48 42 -101 94 -53 51 -256 245
-451 431 -195 186 -354 340 -354 344 6 24 157 518 161 524 3 5 106 -182 230
-415 124 -233 292 -548 373 -700z m1075 852 c42 -140 78 -258 79 -261 0 -4
-159 -158 -354 -344 -195 -186 -398 -380 -451 -431 -53 -52 -98 -94 -101 -94
-3 0 68 138 158 308 90 169 257 483 371 699 115 215 211 388 214 385 4 -4 42
-122 84 -262z m-1165 136 c32 -9 47 -20 53 -37 8 -26 188 -1089 186 -1105 0
-5 -83 236 -184 536 l-183 545 36 38 c41 43 34 41 92 23z m662 -23 l36 -38
-183 -545 c-101 -300 -184 -541 -184 -536 -2 16 178 1079 186 1105 6 17 20 28
48 37 58 17 58 17 97 -23z"/>
</g>
</svg>
